<?xml version="1.0" encoding="UTF-8" standalone="no"?>
<svg width="20px" height="25px" viewBox="0 0 20 25" version="1.1" xmlns="http://www.w3.org/2000/svg" xmlns:xlink="http://www.w3.org/1999/xlink">
    <!-- Generator: sketchtool 3.7.2 (28276) - http://www.bohemiancoding.com/sketch -->
    <title>E18C79A3-CCE1-457E-94C6-B29F371845EC</title>
    <desc>Created with sketchtool.</desc>
    <defs></defs>
    <g id="Page-1" stroke="none" stroke-width="1" fill="none" fill-rule="evenodd">
        <g id="start-up-rides-1" transform="translate(-511.000000, -2893.000000)">
            <g id="icn_location-copy" transform="translate(506.000000, 2890.000000)">
                <rect id="Rectangle-998-Copy-4" x="0" y="0" width="30" height="30"></rect>
                <path d="M15.13376,3.75 C9.89108429,3.75 5.625,8.22864528 5.625,13.7339255 C5.625,19.0088074 13.621059,26.3191219 14.5327425,27.1346822 C14.7061606,27.290263 14.920208,27.3680534 15.13376,27.3680534 C15.3473119,27.3680534 15.5628458,27.290263 15.7352729,27.1346822 C16.6484429,26.3191219 24.64252,19.0088074 24.64252,13.7339255 C24.64252,8.22864528 20.3764357,3.75 15.13376,3.75 L15.13376,3.75 Z M15.13376,20.1295835 C11.3463096,20.1295835 8.26194548,17.0472014 8.26194548,13.257769 C8.26194548,9.46932763 11.3463096,6.38645 15.13376,6.38645 C18.9241833,6.38645 22.0055745,9.46932763 22.0055745,13.257769 C22.0055745,17.0472014 18.9241833,20.1295835 15.13376,20.1295835 L15.13376,20.1295835 Z" id="Fill-2-Copy-5" fill="#1DD977"></path>
            </g>
        </g>
    </g>
</svg>