<?xml version="1.0" encoding="UTF-8" standalone="no"?>
<svg width="36px" height="35px" viewBox="0 0 36 35" version="1.1" xmlns="http://www.w3.org/2000/svg" xmlns:xlink="http://www.w3.org/1999/xlink">
    <!-- Generator: sketchtool 3.7.2 (28276) - http://www.bohemiancoding.com/sketch -->
    <title>B1FC7E54-85C8-49B8-AB9A-4AF0AE569FBC</title>
    <desc>Created with sketchtool.</desc>
    <defs>
        <polygon id="path-1" points="35.4629583 0.591652174 35.4629583 15.2173913 0 15.2173913 0 0.591652174 35.4629583 0.591652174"></polygon>
    </defs>
    <g id="Page-1" stroke="none" stroke-width="1" fill="none" fill-rule="evenodd">
        <g id="start-up-rides-1" transform="translate(-226.000000, -3264.000000)">
            <g id="icn_passenger-copy-6" transform="translate(226.000000, 3264.000000)">
                <path d="M17.73225,17.8061739 C12.7588333,17.8061739 8.71195833,13.8116087 8.71195833,8.90247826 C8.71195833,3.99334783 12.7588333,0.000304347826 17.73225,0.000304347826 C22.7056667,0.000304347826 26.751,3.99334783 26.751,8.90247826 C26.751,13.8116087 22.7056667,17.8061739 17.73225,17.8061739" id="Fill-1" fill="#A7A9AC"></path>
                <g id="Group-5" transform="translate(0.000000, 19.631804)">
                    <mask id="mask-2" fill="white">
                        <use xlink:href="#path-1"></use>
                    </mask>
                    <g id="Clip-4"></g>
                    <path d="M35.3040125,14.9736087 C35.4982625,14.7057826 35.4951792,14.5216522 35.4026792,14.2173043 C33.0562625,6.47926087 26.0416792,0.591652174 17.7336375,0.591652174 C9.51347083,0.591652174 2.5312625,6.24795652 0.1308875,14.0423043 C0.0106375,14.4273043 -0.0726125,14.5855652 0.0908041667,14.9051304 C0.2557625,15.2246957 0.5147625,15.2155652 0.5147625,15.2155652 L34.5732625,15.2155652 C34.5732625,15.2155652 35.0974292,15.2596957 35.3040125,14.9736087" id="Fill-3" fill="#A7A9AC" mask="url(#mask-2)"></path>
                </g>
            </g>
        </g>
    </g>
</svg>