<?xml version="1.0" encoding="UTF-8" standalone="no"?>
<svg width="1024px" height="371px" viewBox="0 0 1024 371" version="1.1" xmlns="http://www.w3.org/2000/svg" xmlns:xlink="http://www.w3.org/1999/xlink">
    <!-- Generator: sketchtool 3.7.2 (28276) - http://www.bohemiancoding.com/sketch -->
    <title>AA677C11-C3AA-4004-B05B-D04690CF8B17</title>
    <desc>Created with sketchtool.</desc>
    <defs>
        <polygon id="path-1" points="12.556 119.8707 12.556 0.113 0.1493 0.113 0.1493 119.8707 12.556 119.8707"></polygon>
    </defs>
    <g id="Page-1" stroke="none" stroke-width="1" fill="none" fill-rule="evenodd">
        <g id="start-up-rides-1">
            <g id="img_head_home">
                <polygon id="Fill-1" fill="#27F489" points="704.9697 370.4333 817.6807 370.4333 817.6737 257.7273"></polygon>
                <polygon id="Fill-2" fill="#009933" points="680.1255 0.4334 680.1325 120.1914 680.1545 370.4334 704.9295 370.4334 817.6535 257.7104 817.6325 0.4334"></polygon>
                <polygon id="Fill-3" fill="#27F489" points="542.6407 0.4334 542.6567 370.4334 680.1777 370.4334 680.1547 0.4334"></polygon>
                <polygon id="Fill-4" fill="#27F489" points="817.6622 0.4334 817.6732 177.1544 1010.9602 370.4334 1024.5562 370.4334 1024.5562 189.5624 835.4212 0.4334"></polygon>
                <polygon id="Fill-5" fill="#009933" points="835.438 0.4334 1012.275 177.2694 1024.557 189.5514 1024.557 0.4334"></polygon>
                <polygon id="Fill-6" fill="#27F489" points="330.5511 0.4334 0.5561 330.4394 0.5561 370.4334 155.0621 370.4334 525.0471 0.4334"></polygon>
                <polygon id="Fill-7" fill="#009933" points="524.9255 0.4334 348.1915 177.1694 154.9295 370.4334 349.4015 370.4334 542.6685 177.1694 542.6535 0.4334"></polygon>
                <polygon id="Fill-8" fill="#0F3F0F" points="405.0777 314.7557 405.0897 314.7677 405.0897 370.4337 542.6037 370.4337 542.5997 177.2407"></polygon>
                <polygon id="Fill-9" fill="#0F3F0F" points="817.679 370.4333 1010.939 370.4333 817.661 177.1613"></polygon>
                <g id="Group-12" transform="translate(1012.000000, 0.320000)">
                    <mask id="mask-2" fill="white">
                        <use xlink:href="#path-1"></use>
                    </mask>
                    <g id="Clip-11"></g>
                    <polygon id="Fill-10" fill="#004000" mask="url(#mask-2)" points="275.1973 -17.6523 0.1493 -17.6463 137.6653 119.8707 137.6813 119.8637 412.7133 119.8577 275.1813 -17.6563"></polygon>
                </g>
                <polygon id="Fill-13" fill="#009933" points="0.5565 0.4334 0.5565 135.7984 135.9135 0.4334"></polygon>
                <polygon id="Fill-14" fill="#27F489" points="349.4048 370.4333 405.0788 370.4333 405.0778 314.7553"></polygon>
                <polygon id="Fill-15" fill="#004000" points="153.6276 177.2231 153.6156 177.2351 153.6306 177.2231"></polygon>
                <polygon id="Fill-16" fill="#0F3F0F" points="135.9415 0.4334 0.5565 135.8174 0.5565 330.2904 153.6115 177.2234 153.6275 177.2234 330.4055 0.4334"></polygon>
                <polygon id="Fill-17" fill="#0F3F0F" points="680.1461 0.4334 680.1561 120.2064 799.9281 0.4334"></polygon>
            </g>
        </g>
    </g>
</svg>