<?xml version="1.0" encoding="UTF-8" standalone="no"?>
<svg width="1024px" height="371px" viewBox="0 0 1024 371" version="1.1" xmlns="http://www.w3.org/2000/svg" xmlns:xlink="http://www.w3.org/1999/xlink">
    <!-- Generator: sketchtool 3.7.2 (28276) - http://www.bohemiancoding.com/sketch -->
    <title>6E3CE97F-FA52-4B78-B70C-D04C8325BE4E</title>
    <desc>Created with sketchtool.</desc>
    <defs></defs>
    <g id="Page-1" stroke="none" stroke-width="1" fill="none" fill-rule="evenodd">
        <g id="start-up-rides-3">
            <g id="img_head_apply" transform="translate(512.500000, 185.500000) scale(-1, -1) translate(-512.500000, -185.500000) ">
                <polygon id="Fill-1" fill="#F2F933" points="368.1472 0.4673 368.1512 370.4683 384.8512 370.4683 505.6732 249.6483 505.6682 0.4673"></polygon>
                <polygon id="Fill-2" fill="#F2F933" points="780.728 249.6593 901.538 370.4683 1024.156 370.4683 1024.156 249.6543"></polygon>
                <polygon id="Fill-3" fill="#F2F933" points="0.1554 370.4681 351.4144 370.4681 230.6054 249.6591 0.1554 249.6451"></polygon>
                <polygon id="Fill-4" fill="#B8AC1B" points="384.8618 370.4681 901.5258 370.4681 780.7098 249.6591 505.6738 249.6541"></polygon>
                <polygon id="Fill-5" fill="#B8AC1B" points="230.6242 0.4673 230.6282 249.6763 351.4142 370.4683 368.1392 370.4683 368.1392 112.1663 368.1392 0.4673"></polygon>
                <polygon id="Fill-6" fill="#F2F933" points="0.1554 0.4673 0.1554 19.2163 230.6234 249.6763 230.6174 55.1873 175.8954 0.4673"></polygon>
                <polygon id="Fill-7" fill="#B8AC1B" points="0.1554 213.6798 36.1414 249.6658 230.6054 249.6768 36.1294 55.1998 0.1554 19.2258"></polygon>
                <polygon id="Fill-8" fill="#F2F933" points="754.8706 0.4673 505.6886 249.6593 700.1766 249.6593 949.3626 0.4673"></polygon>
                <polygon id="Fill-9" fill="#B8AC1B" points="560.3857 0.4673 505.6787 55.1763 505.6787 249.6483 700.1587 55.1653 754.8597 0.4673"></polygon>
                <polygon id="Fill-10" fill="#79731F" points="505.632 0.4673 505.633 55.6683 560.833 0.4673"></polygon>
                <polygon id="Fill-11" fill="#79731F" points="175.9148 0.4673 230.6108 55.1593 230.6108 0.4673"></polygon>
                <polygon id="Fill-12" fill="#79731F" points="0.1554 249.647 36.1244 249.649 0.1554 213.679"></polygon>
                <polygon id="Fill-13" fill="#B8AC1B" points="893.8635 249.8474 1024.1555 249.8404 1024.1555 119.5394"></polygon>
                <polygon id="Fill-14" fill="#79731F" points="384.8643 370.4681 626.4883 370.4681 505.6733 249.6541"></polygon>
                <polygon id="Fill-15" fill="#0F3F0F" points="893.8311 55.3592 893.8431 55.3592 893.8501 55.3532"></polygon>
                <polygon id="Fill-16" fill="#79731F" points="948.7355 0.4673 893.8565 55.3533 893.8425 55.3593 699.3685 249.8423 893.8455 249.8423 893.8505 249.8313 1024.1555 119.5183 1024.1555 0.4673"></polygon>
                <polygon id="Fill-17" fill="#79731F" points="230.4915 249.5108 351.4475 370.4678 368.0125 370.4678 368.0065 112.0008"></polygon>
            </g>
        </g>
    </g>
</svg>