<?xml version="1.0" encoding="UTF-8" standalone="no"?>
<svg width="374px" height="141px" viewBox="0 0 374 141" version="1.1" xmlns="http://www.w3.org/2000/svg" xmlns:xlink="http://www.w3.org/1999/xlink">
    <!-- Generator: sketchtool 3.7.2 (28276) - http://www.bohemiancoding.com/sketch -->
    <title>F0770A63-AF98-4458-A5F0-63ED99E75E5E</title>
    <desc>Created with sketchtool.</desc>
    <defs>
        <polygon id="path-1" points="49.2114567 0.644112 0.000571254694 0.644112 0.000571254694 65.0611676 49.2114567 65.0611676 49.2114567 0.644112"></polygon>
        <polygon id="path-3" points="0 141.356105 373.994998 141.356105 373.994998 1.03294415 0 1.03294415"></polygon>
    </defs>
    <g id="Page-1" stroke="none" stroke-width="1" fill="none" fill-rule="evenodd">
        <g id="start-up-rides-1" transform="translate(-38.000000, -73.000000)">
            <g id="img_title" transform="translate(38.000000, 72.000000)">
                <g id="Group-3" transform="translate(0.000000, 0.388832)">
                    <mask id="mask-2" fill="white">
                        <use xlink:href="#path-1"></use>
                    </mask>
                    <g id="Clip-2"></g>
                    <path d="M34.7601996,47.5595385 C34.7601996,45.3517741 34.0336483,43.6449857 32.5805456,42.4435108 C31.125287,41.2376985 28.5187571,39.9624868 24.7566441,38.6135385 C16.8917797,36.1216708 11.0642774,33.4476301 7.27198123,30.5957537 C3.481841,27.7417087 1.58677088,23.6211268 1.58677088,18.2318396 C1.58677088,12.9856883 3.84619464,8.74365775 8.36288621,5.50141047 C12.8817337,2.26350065 18.6165307,0.643461382 25.569433,0.643461382 C32.4662808,0.643461382 38.1169962,2.4261552 42.5215789,5.99804902 C46.9240057,9.56560538 49.0519172,14.1611385 48.9096253,19.7781421 L48.8233877,20.0383894 L34.8033184,20.0383894 C34.8033184,17.5421843 33.9646582,15.516593 32.2830261,13.9529407 C30.5992379,12.3892883 28.277292,11.6085465 25.3128762,11.6085465 C22.4066709,11.6085465 20.1278437,12.2548272 18.4720828,13.5430512 C16.8227897,14.8334439 15.9949092,16.4252897 15.9949092,18.3185887 C15.9949092,20.1511632 16.8292575,21.6215603 18.4936421,22.7254425 C20.1623387,23.8293247 23.2906057,25.2129727 27.8805992,26.8742177 C34.9456103,28.995233 40.268623,31.6063807 43.8453253,34.7011545 C47.4220276,37.798097 49.2114567,42.0553087 49.2114567,47.4727894 C49.2114567,52.9770192 47.0792333,57.2841116 42.8190985,60.3962352 C38.5589636,63.5083588 32.9082483,65.0611676 25.8691084,65.0611676 C18.8019414,65.0611676 12.6876992,63.276305 7.52853793,59.7087487 C2.37153257,56.1368548 -0.137980077,50.9991399 0.00646781609,44.2912665 L0.092705364,44.0331879 L14.1558935,44.0331879 C14.1558935,47.6441188 15.1260659,50.2249043 17.0620989,51.7733756 C19.0002877,53.3218468 21.9366762,54.0960825 25.8691084,54.0960825 C28.8615513,54.0960825 31.0929479,53.4931763 32.5589862,52.2895327 C34.0271805,51.085889 34.7601996,49.5070556 34.7601996,47.5595385" id="Fill-1" fill="#FFFFFF" mask="url(#mask-2)"></path>
                </g>
                <polygon id="Fill-4" fill="#FFFFFF" points="100.42384 13.1153575 84.0085229 13.1153575 84.0085229 64.5467248 69.516303 64.5467248 69.516303 13.1153575 53.2281861 13.1153575 53.2281861 1.93556844 100.42384 1.93556844"></polygon>
                <path d="M118.292476,41.196472 L131.501912,41.196472 L125.001757,18.7913505 L124.747356,18.7913505 L118.292476,41.196472 Z M134.707793,52.3762611 L115.086595,52.3762611 L111.581038,64.5471585 L97.0478557,64.5471585 L117.136892,1.93383345 L132.655339,1.93383345 L152.789651,64.5471585 L138.256468,64.5471585 L134.707793,52.3762611 Z" id="Fill-6" fill="#FFFFFF"></path>
                <path d="M171.685591,29.3701853 L181.216996,29.3701853 C184.127513,29.3701853 186.34813,28.704386 187.88747,27.3706188 C189.426811,26.0390202 190.194325,24.124034 190.194325,21.6321664 C190.194325,19.0795744 189.405251,17.0236209 187.822792,15.4599686 C186.240333,13.8963162 184.011093,13.1155744 181.132914,13.1155744 L171.685591,13.1155744 L171.685591,29.3701853 Z M171.685591,40.5499744 L171.685591,64.5469417 L157.193371,64.5469417 L157.193371,1.93578531 L181.132914,1.93578531 C188.342373,1.93578531 194.055611,3.61221149 198.274783,6.96723258 C202.493955,10.3222537 204.602463,14.9069431 204.602463,20.7278071 C204.602463,23.9678857 203.753023,26.748194 202.058455,29.0687322 C200.363888,31.3936079 197.862999,33.284738 194.555789,34.7464602 C198.376112,35.8351613 201.11631,37.6482173 202.785007,40.1856282 C204.451547,42.7230391 205.285896,45.8828748 205.285896,49.6673039 L205.285896,53.6252311 C205.285896,55.2604515 205.527361,57.1233882 206.012447,59.21621 C206.495377,61.3090319 207.336193,62.7989475 208.534895,63.6859569 L208.534895,64.5469417 L193.658918,64.5469417 C192.518427,63.6599322 191.76816,62.0810988 191.414586,59.8169475 C191.0567,57.5527962 190.879913,55.4578057 190.879913,53.538482 L190.879913,49.7540529 C190.879913,46.7720529 190.095152,44.4948893 188.527784,42.9160559 C186.960417,41.3415599 184.666498,40.5499744 181.646028,40.5499744 L171.685591,40.5499744 Z" id="Fill-8" fill="#FFFFFF"></path>
                <polygon id="Fill-10" fill="#FFFFFF" points="256.287213 13.1153575 239.869739 13.1153575 239.869739 64.5467248 225.379675 64.5467248 225.379675 13.1153575 209.091559 13.1153575 209.091559 1.93556844 256.287213 1.93556844"></polygon>
                <path d="M315.171288,1.93491782 L315.171288,42.9585629 C315.171288,50.0980131 312.812691,55.6326051 308.097653,59.5580015 C303.38046,63.4877353 297.203695,65.4504335 289.565204,65.4504335 C281.842632,65.4504335 275.614125,63.4877353 270.883996,59.5580015 C266.153866,55.6326051 263.786645,50.0980131 263.786645,42.9585629 L263.786645,1.93491782 L278.281021,1.93491782 L278.281021,42.9585629 C278.281021,46.8015476 279.261973,49.6469178 281.228189,51.4968422 C283.194406,53.3445978 285.973411,54.2706444 289.565204,54.2706444 C293.126815,54.2706444 295.871325,53.351104 297.792266,51.5163607 C299.71752,49.6837862 300.679068,46.8297411 300.679068,42.9585629 L300.679068,1.93491782 L315.171288,1.93491782 Z" id="Fill-12" fill="#FFFFFF"></path>
                <path d="M339.15395,31.9073793 L349.927176,31.9073793 C353.059755,31.9073793 355.448535,31.0420572 357.084893,29.3070753 C358.723406,27.5720935 359.544819,25.3448106 359.544819,22.6208892 C359.544819,19.8405808 358.723406,17.5612484 357.084893,15.7807233 C355.448535,14.0045357 353.059755,13.1153575 349.927176,13.1153575 L339.15395,13.1153575 L339.15395,31.9073793 Z M339.15395,43.0871684 L339.15395,64.5467248 L324.66173,64.5467248 L324.66173,1.93556844 L349.927176,1.93556844 C357.306954,1.93556844 363.16464,3.83537353 367.49592,7.63498371 C371.827201,11.4324252 373.99392,16.3988106 373.99392,22.5341401 C373.99392,28.697663 371.827201,33.6662172 367.49592,37.4332964 C363.16464,41.2047132 357.306954,43.0871684 349.927176,43.0871684 L339.15395,43.0871684 Z" id="Fill-14" fill="#FFFFFF"></path>
                <path d="M15.1189513,105.27564 L24.6525122,105.27564 C27.5608735,105.27564 29.7814904,104.609841 31.3229866,103.276073 C32.8601708,101.944475 33.629841,100.029489 33.629841,97.5376209 C33.629841,94.9850289 32.8386115,92.9290755 31.2561525,91.3654231 C29.6758494,89.8017708 27.4444528,89.0210289 24.5684306,89.0210289 L15.1189513,89.0210289 L15.1189513,105.27564 Z M15.1189513,116.455429 L15.1189513,140.452396 L0.626731379,140.452396 L0.626731379,77.8412399 L24.5684306,77.8412399 C31.7778896,77.8412399 37.4911272,79.517666 41.7102992,82.8726871 C45.9273153,86.2277082 48.0358233,90.8123977 48.0358233,96.6332617 C48.0358233,99.8733402 47.1885394,102.653649 45.4918157,104.974187 C43.7972479,107.299062 41.296359,109.190193 37.989149,110.651915 C41.8094724,111.740616 44.5518264,113.553672 46.220523,116.091083 C47.8870636,118.628494 48.7214118,121.788329 48.7214118,125.572758 L48.7214118,129.530686 C48.7214118,131.165906 48.960721,133.028843 49.4458072,135.121665 C49.9287375,137.214486 50.7717095,138.704402 51.9682555,139.591411 L51.9682555,140.452396 L37.0922785,140.452396 C35.9517869,139.565387 35.2036762,137.986553 34.8479463,135.722402 C34.4922164,133.458251 34.3132735,131.36326 34.3132735,129.443937 L34.3132735,125.659507 C34.3132735,122.677507 33.5285118,120.400344 31.9611444,118.82151 C30.3959329,117.247014 28.0998582,116.455429 25.0793881,116.455429 L15.1189513,116.455429 Z" id="Fill-16" fill="#FFFFFF"></path>
                <mask id="mask-4" fill="white">
                    <use xlink:href="#path-3"></use>
                </mask>
                <g id="Clip-19"></g>
                <polygon id="Fill-18" fill="#FFFFFF" mask="url(#mask-4)" points="60.629308 140.451746 75.0352904 140.451746 75.0352904 77.8405892 60.629308 77.8405892"></polygon>
                <path d="M101.478525,89.0208121 L101.478525,129.27239 L108.489638,129.27239 C112.335833,129.27239 115.343367,127.945129 117.510085,125.294944 C119.672492,122.642591 120.756929,119.137928 120.756929,114.780955 L120.756929,103.427667 C120.756929,99.096719 119.672492,95.6159117 117.510085,92.9765706 C115.343367,90.3393983 112.335833,89.0208121 108.489638,89.0208121 L101.478525,89.0208121 Z M86.9841495,140.452179 L86.9841495,77.841023 L109.472746,77.841023 C116.79647,77.841023 122.923648,80.2418041 127.854279,85.0433663 C132.784911,89.8470972 135.249149,96.0041139 135.249149,103.514416 L135.249149,114.780955 C135.249149,122.319451 132.784911,128.482974 127.854279,133.269355 C122.923648,138.057904 116.79647,140.452179 109.472746,140.452179 L86.9841495,140.452179 Z" id="Fill-20" fill="#FFFFFF" mask="url(#mask-4)"></path>
                <polygon id="Fill-21" fill="#FFFFFF" mask="url(#mask-4)" points="183.084255 113.662542 158.676873 113.662542 158.676873 129.270872 187.445719 129.270872 187.445719 140.45283 144.184653 140.45283 144.184653 77.8395049 187.531956 77.8395049 187.531956 89.0214627 158.676873 89.0214627 158.676873 102.482753 183.084255 102.482753"></polygon>
                <path d="M227.032634,123.853825 C227.032634,121.646061 226.303926,119.939272 224.850824,118.737798 C223.397721,117.531985 220.789035,116.256774 217.026922,114.907825 C209.162058,112.415958 203.334556,109.741917 199.544415,106.89004 C195.754275,104.035995 193.859205,99.9154135 193.859205,94.5261263 C193.859205,89.279975 196.116473,85.0379444 200.63532,81.7956972 C205.152012,78.5577873 210.886809,76.9377481 217.839711,76.9377481 C224.738715,76.9377481 230.38943,78.7204419 234.789701,82.2923357 C239.194284,85.8598921 241.324351,90.4554252 241.179903,96.0724288 L241.095822,96.3326761 L227.075752,96.3326761 C227.075752,93.836471 226.23278,91.8108797 224.553304,90.2472273 C222.869516,88.683575 220.54757,87.9028332 217.583154,87.9028332 C214.679105,87.9028332 212.395966,88.5491139 210.744517,89.8373379 C209.090912,91.1277306 208.265187,92.7195764 208.265187,94.6128753 C208.265187,96.4454499 209.099536,97.915847 210.766076,99.0197292 C212.434773,100.123611 215.560884,101.507259 220.148721,103.168504 C227.218044,105.28952 232.538901,107.900667 236.115603,110.995441 C239.69015,114.092384 241.479579,118.349595 241.479579,123.767076 C241.479579,129.271306 239.349511,133.578398 235.089377,136.690522 C230.829242,139.802646 225.180682,141.355454 218.139387,141.355454 C211.07222,141.355454 204.960133,139.570592 199.800972,136.003035 C194.643967,132.431142 192.134454,127.293427 192.276746,120.585553 L192.360828,120.327475 L206.424016,120.327475 C206.424016,123.938406 207.396344,126.519191 209.334533,128.067662 C211.270566,129.616134 214.206954,130.390369 218.139387,130.390369 C221.133985,130.390369 223.36107,129.787463 224.83142,128.583819 C226.295303,127.380176 227.032634,125.801342 227.032634,123.853825" id="Fill-22" fill="#FFFFFF" mask="url(#mask-4)"></path>
                <polygon id="Fill-23" fill="#FFFFFF" mask="url(#mask-4)" points="252.501384 89.0247158 373.876421 89.0247158 373.876421 77.818902 252.501384 77.818902"></polygon>
                <polygon id="Fill-24" fill="#FFFFFF" mask="url(#mask-4)" points="252.501384 140.531989 317.656008 140.531989 317.656008 129.326175 252.501384 129.326175"></polygon>
                <polygon id="Fill-25" fill="#FFFFFF" mask="url(#mask-4)" points="252.501384 114.778352 345.758669 114.778352 345.758669 103.572538 252.501384 103.572538"></polygon>
            </g>
        </g>
    </g>
</svg>