<?xml version="1.0" encoding="UTF-8" standalone="no"?>
<svg width="263px" height="140px" viewBox="0 0 263 140" version="1.1" xmlns="http://www.w3.org/2000/svg" xmlns:xlink="http://www.w3.org/1999/xlink">
    <!-- Generator: sketchtool 3.7.2 (28276) - http://www.bohemiancoding.com/sketch -->
    <title>9F8387B9-EB39-4CDD-B72E-A9631F13C4E4</title>
    <desc>Created with sketchtool.</desc>
    <defs>
        <polygon id="path-1" points="56.6850507 62.8549563 56.6850507 0.345887894 0.245930309 0.345887894 0.245930309 62.8549563"></polygon>
    </defs>
    <g id="Page-1" stroke="none" stroke-width="1" fill="none" fill-rule="evenodd">
        <g id="start-up-rides-3" transform="translate(-50.000000, -73.000000)">
            <g id="img_apply_now" transform="translate(50.000000, 72.000000)">
                <path d="M20.1410008,1.13470648 L-0.000431109417,63.6420474 L14.5689116,63.6420474 L18.0846089,51.4934206 L37.7539761,51.4934206 L41.3106287,63.6420474 L55.882127,63.6420474 L35.6975841,1.13470648 L20.1410008,1.13470648 Z M27.769482,17.9626924 L28.0281476,17.9626924 L34.5400554,40.3294674 L21.2985296,40.3294674 L27.769482,17.9626924 Z" id="Fill-1" fill="#FFFFFF"></path>
                <g id="Group-17" transform="translate(1.023256, 0.787523)">
                    <path d="M73.799879,30.2698171 L84.6013254,30.2698171 C87.7419575,30.2698171 90.1346148,29.4039089 91.7792972,27.6720926 C93.4218241,25.9424356 94.240932,23.7161231 94.240932,20.9974738 C94.240932,18.2205214 93.4218241,15.9467027 91.7792972,14.1695395 C90.1346148,12.3966951 87.7419575,11.5091933 84.6013254,11.5091933 L73.799879,11.5091933 L73.799879,30.2698171 Z M73.799879,41.4316109 L73.799879,62.8547404 L59.2736472,62.8547404 L59.2736472,0.347399455 L84.6013254,0.347399455 C91.999163,0.347399455 97.8708733,2.24332806 102.214301,6.03518527 C106.555572,9.82704248 108.726208,14.7871199 108.726208,20.9110989 C108.726208,27.0653091 106.555572,32.0232271 102.214301,35.7870125 C97.8708733,39.5507979 91.999163,41.4316109 84.6013254,41.4316109 L73.799879,41.4316109 Z" id="Fill-2" fill="#FFFFFF"></path>
                    <path d="M131.397606,30.2698171 L142.199052,30.2698171 C145.339684,30.2698171 147.732342,29.4039089 149.377024,27.6720926 C151.019551,25.9424356 151.838659,23.7161231 151.838659,20.9974738 C151.838659,18.2205214 151.019551,15.9467027 149.377024,14.1695395 C147.732342,12.3966951 145.339684,11.5091933 142.199052,11.5091933 L131.397606,11.5091933 L131.397606,30.2698171 Z M131.397606,41.4316109 L131.397606,62.8547404 L116.871374,62.8547404 L116.871374,0.347399455 L142.199052,0.347399455 C149.59689,0.347399455 155.4686,2.24332806 159.812028,6.03518527 C164.153299,9.82704248 166.323935,14.7871199 166.323935,20.9110989 C166.323935,27.0653091 164.153299,32.0232271 159.812028,35.7870125 C155.4686,39.5507979 149.59689,41.4316109 142.199052,41.4316109 L131.397606,41.4316109 Z" id="Fill-4" fill="#FFFFFF"></path>
                    <polygon id="Fill-6" fill="#FFFFFF" points="188.993177 51.6927306 215.864227 51.6927306 215.864227 62.8545244 174.466946 62.8545244 174.466946 0.347183517 188.993177 0.347183517"></polygon>
                    <g id="Group-10" transform="translate(204.776973, 0.000000)">
                        <mask id="mask-2" fill="white">
                            <use xlink:href="#path-1"></use>
                        </mask>
                        <g id="Clip-9"></g>
                        <polygon id="Fill-8" fill="#FFFFFF" mask="url(#mask-2)" points="28.2723535 27.6507148 28.5288636 27.6507148 40.9577481 0.34545602 56.6867751 0.34545602 35.4740363 40.8747089 35.4740363 62.8549563 21.0318708 62.8549563 21.0318708 40.1448411 0.245930309 0.34545602 15.8887355 0.34545602"></polygon>
                    </g>
                    <polygon id="Fill-11" fill="#FFFFFF" points="52.5770091 138.432328 38.1369992 138.432328 15.2925112 98.5919149 15.0360011 98.6782898 15.0360011 138.432328 0.509769272 138.432328 0.509769272 75.9249871 15.0360011 75.9249871 37.8783335 115.7654 38.1369992 115.679025 38.1369992 75.9249871 52.5770091 75.9249871"></polygon>
                    <path d="M99.5465956,101.468846 C99.5465956,97.0032649 98.4968441,93.34097 96.3951857,90.4776428 C94.2956829,87.6164749 91.3296501,86.1848113 87.503554,86.1848113 C83.5890805,86.1848113 80.5971812,87.6099968 78.5257004,90.4560491 C76.4542197,93.3042607 75.4195571,96.9751931 75.4195571,101.468846 L75.4195571,112.80339 C75.4195571,117.325115 76.4693085,121.017641 78.5688114,123.878809 C80.6683142,126.742136 83.6753024,128.17164 87.5897759,128.17164 C91.3878499,128.17164 94.3323272,126.742136 96.4167412,123.878809 C98.5033108,121.017641 99.5465956,117.325115 99.5465956,112.80339 L99.5465956,101.468846 Z M113.986605,112.80339 C113.986605,120.501551 111.550837,126.847945 106.681456,131.842573 C101.80992,136.8372 95.446745,139.333434 87.5897759,139.333434 C79.674607,139.333434 73.2618544,136.8372 68.3472071,131.842573 C63.4325597,126.847945 60.9752361,120.501551 60.9752361,112.80339 L60.9752361,101.555221 C60.9752361,93.8851318 63.4260931,87.5452156 68.3256516,82.5354726 C73.2252101,77.527889 79.6185628,75.0230175 87.503554,75.0230175 C95.3303455,75.0230175 101.702143,77.527889 106.61679,82.5354726 C111.531437,87.5452156 113.986605,93.8851318 113.986605,101.555221 L113.986605,112.80339 Z" id="Fill-13" fill="#FFFFFF"></path>
                    <polygon id="Fill-15" fill="#FFFFFF" points="172.572004 116.924119 172.828514 116.924119 181.013126 75.9241234 195.026338 75.9241234 180.713505 138.431464 167.086137 138.431464 156.586467 99.8801962 156.329957 99.8801962 145.916509 138.431464 132.28914 138.431464 117.931041 75.9241234 131.987364 75.9241234 140.174131 116.924119 140.430642 116.924119 151.443332 75.9241234 161.514048 75.9241234"></polygon>
                </g>
            </g>
        </g>
    </g>
</svg>