<?xml version="1.0" encoding="UTF-8" standalone="no"?>
<svg width="560px" height="432px" viewBox="0 0 560 432" version="1.1" xmlns="http://www.w3.org/2000/svg" xmlns:xlink="http://www.w3.org/1999/xlink">
    <!-- Generator: sketchtool 3.7.2 (28276) - http://www.bohemiancoding.com/sketch -->
    <title>33E179D5-4721-40EF-A433-AF3F97F69CBB</title>
    <desc>Created with sketchtool.</desc>
    <defs></defs>
    <g id="Page-1" stroke="none" stroke-width="1" fill="none" fill-rule="evenodd">
        <g id="start-up-rides-1" transform="translate(-230.000000, -514.000000)">
            <g id="img_tesla" transform="translate(230.000000, 514.000000)">
                <g id="Page-1" transform="translate(34.000000, 120.034602)" stroke="#34D161" stroke-linecap="round" stroke-linejoin="round">
                    <path d="M250.877013,301.97803 L245.861928,301.97803 C245.861928,301.97803 230.384082,301.97803 215.475155,301.694509 C200.566229,301.410988 116.364982,295.585917 112.958976,295.727678 C109.550822,295.870512 108.130669,298.710019 108.130669,298.710019 C108.130669,298.710019 103.871283,298.426498 72.6322026,295.301322 C41.3941961,292.175072 23.504343,287.914738 19.9534229,286.778505 C16.4035762,285.642273 15.9774229,284.645653 15.9774229,284.645653 C15.9774229,284.645653 10.4406497,272.146023 5.32895637,251.263188 C0.217263067,230.380354 0.217263067,202.253769 0.785109719,183.217044 C1.35295637,164.180319 4.47772311,133.780195 12.7120363,122.558558 C20.9484963,111.335847 33.4432695,100.112062 39.4072695,95.7088926 C45.3712695,91.3067975 46.6475827,90.4530123 49.7723495,90.4530123 C52.8960428,90.4530123 52.6126562,89.315706 60.5635827,89.315706 C68.5145093,89.315706 74.4785093,83.2081884 77.8866626,76.9578363 C81.2937425,70.7064102 88.2517425,59.9111285 88.2517425,59.9111285 C103.2079,33.3933116 118.54298,16.7224842 122.51898,13.695037 C126.496054,10.6686637 131.794524,10.2906356 131.794524,10.2906356 C171.174529,1.95468486 238.762235,0.537079225 238.762235,0.537079225 L251.63593,0.599367958" id="Stroke-1"></path>
                    <path d="M132.41132,10.0541532 C132.41132,10.0541532 128.71978,11.7574278 125.027166,15.0200687 C121.335626,18.2848574 111.395626,28.3734842 94.7820864,58.6318468 C94.7820864,58.6318468 89.8131598,68.4337306 88.5346998,71.5589067 C87.2583866,74.6851567 83.9919266,80.0827975 89.5286998,80.7937482 C95.0676199,81.5025511 107.84578,82.6398574 132.69578,81.0783433 C157.542559,79.5146813 233.782145,78.1443292 248.974458,78.0036426" id="Stroke-3"></path>
                    <path d="M86.3585268,79.2322342 C86.3585268,79.2322342 76.7029868,79.9893644 80.6789868,88.8902095 C84.6549868,97.7932025 131.983771,187.19579 131.983771,187.19579" id="Stroke-5"></path>
                    <path d="M60.5635827,89.316243 C60.5635827,89.316243 54.7423495,90.974412 54.5523516,102.338884 C54.3634272,113.70443 56.0669672,134.729025 56.0669672,134.729025" id="Stroke-7"></path>
                    <path d="M122.897151,193.257021 C122.897151,193.257021 108.887762,172.60938 100.935762,162.004187 C92.9837622,151.396845 85.4128313,149.502408 63.0725203,137.947849 C40.7322093,126.393289 20.8532827,123.363694 20.8532827,123.363694 C20.8532827,123.363694 13.4702028,146.850842 19.9065138,159.163606 C26.3428248,171.474222 33.3008248,172.847796 37.1340581,171.711563 C40.9683648,170.574257 50.6249782,167.590842 61.6985246,152.390243" id="Stroke-9"></path>
                    <path d="M32.4488402,125.684593 L24.6396069,130.087762 C24.6396069,130.087762 34.5785335,130.940474 44.9446868,135.485403 C55.3097667,140.030333 57.2977667,142.58954 59.5691533,147.845421 C61.8416134,153.101301 62.6928467,157.646231 69.3663866,159.778009 C76.0388531,161.907639 106.85178,170.716125 106.85178,170.716125" id="Stroke-11"></path>
                    <path d="M24.6391775,130.087333 L24.4964108,136.479445 C24.4964108,136.479445 30.1770242,130.940044 41.8205641,134.206981" id="Stroke-13"></path>
                    <path d="M24.4966255,136.479553 C24.4966255,136.479553 21.800159,165.176401 48.6360121,165.602757" id="Stroke-15"></path>
                    <path d="M43.8089935,169.011454 C43.8089935,169.011454 46.3648402,168.726859 53.0383801,170.431208 C59.7108467,172.13663 77.6017732,178.103461 84.5597732,178.813338 C91.5177732,179.524289 95.0676199,178.528743 104.297006,174.125574 L108.273006,172.279465" id="Stroke-17"></path>
                    <path d="M53.2266605,145.621713 C53.2266605,151.21696 48.6914013,155.754371 43.0977361,155.754371 C37.5051443,155.754371 32.9688117,151.21696 32.9688117,145.621713 C32.9688117,140.023245 37.5051443,135.485833 43.0977361,135.485833 C48.6914013,135.485833 53.2266605,140.023245 53.2266605,145.621713 L53.2266605,145.621713 Z" id="Stroke-19"></path>
                    <path d="M10.6300035,125.63734 C10.6300035,125.63734 14.9859991,122.605597 20.8533901,123.363801" id="Stroke-21"></path>
                    <path d="M0.974356156,182.271114 C0.974356156,182.271114 2.11112289,189.658773 6.84389395,185.490798 C11.576665,181.323896 15.3626672,171.853861 15.3626672,171.853861 C15.3626672,171.853861 70.833449,221.857752 112.673764,202.158403" id="Stroke-23"></path>
                    <path d="M18.5812521,213.523519 C18.5812521,213.523519 16.120941,207.083079 17.8234076,207.462181 C19.5290944,207.842357 36.7577121,216.743202 60.8004896,222.994629 C60.8004896,222.994629 76.1355695,225.457181 83.8975717,236.253537 L87.3035782,241.177569 C87.3035782,241.177569 60.420494,237.768871 40.7315652,230.950403 C21.0426365,224.131935 23.3140231,224.319875 18.5812521,213.523519 L18.5812521,213.523519 Z" id="Stroke-25"></path>
                    <path d="M249.363256,176.77757 C249.363256,176.77757 190.106472,176.968732 153.187852,181.892764 C142.034871,183.380176 133.127515,186.839349 126.0085,191.124384 C109.561342,201.023996 102.648426,215.336444 99.6106078,219.965141 C95.256759,226.593521 99.4216834,249.132377 129.712921,255.571743 C160.004159,262.012183 222.859094,265.423028 249.363256,264.854912" id="Stroke-27"></path>
                    <path d="M125.169826,191.741472 C125.169826,191.741472 145.994448,194.015011 184.994456,194.583127 C223.993392,195.151243 234.596774,194.960081 234.596774,194.960081 C234.596774,194.960081 242.246065,209.167282 248.682376,214.092387" id="Stroke-29"></path>
                    <path d="M103.018761,215.229801 C103.018761,215.229801 106.993688,220.531861 134.256768,222.426298 C161.518774,224.31966 248.607558,226.214097 248.607558,226.214097" id="Stroke-31"></path>
                    <path d="M133.877845,256.14147 C133.877845,256.14147 140.125232,251.02735 143.911234,249.892192 C147.699383,248.754886 225.6994,252.354745 248.607558,252.164657" id="Stroke-33"></path>
                    <path d="M59.4041665,136.39353 C59.4041665,136.39353 63.9050758,152.09566 66.7582637,153.963248 C69.6135985,155.829762 92.9897734,164.174305 103.198132,165.712192" id="Stroke-35"></path>
                    <path d="M67.4172449,140.017123 C67.4172449,140.017123 70.4915603,154.842915 72.9046402,156.597739" id="Stroke-37"></path>
                    <path d="M74.1125756,143.531496 C74.1125756,143.531496 77.0430508,157.327377 79.3477138,158.959771" id="Stroke-39"></path>
                    <path d="M81.4011933,147.036526 C81.4011933,147.036526 83.8861933,159.699396 85.8376965,161.198621" id="Stroke-41"></path>
                    <path d="M88.3114255,150.823681 C88.3114255,150.823681 90.397108,161.794016 92.0383888,163.093488" id="Stroke-43"></path>
                    <path d="M1.73123456,228.675146 C1.73123456,228.675146 -0.16230324,266.179407 8.35861685,289.855569 C8.35861685,289.855569 12.3335434,303.114477 30.6978544,304.059548 C49.061092,305.008914 63.8293987,304.439724 65.5329387,304.059548 C67.2375521,303.682593 70.0767853,296.672963 70.8346298,294.780674" id="Stroke-45"></path>
                    <path d="M249.363256,280.19609 C249.363256,280.19609 175.151387,279.249945 150.349692,278.491741 C125.546923,277.733537 119.961845,279.152217 115.513534,280.289523 C111.065223,281.426829 104.722301,285.878326 104.154454,287.678255 C104.154454,287.678255 111.159686,289.856213 130.848614,291.275967 C150.53969,292.697868 186.602783,294.970333 215.001556,295.538449 C243.400329,296.105491 250.311098,296.484593 250.311098,296.484593" id="Stroke-47"></path>
                    <path d="M80.7344834,71.5940246 L75.558384,71.5940246 C75.558384,71.5940246 76.374194,66.2790775 76.4439672,64.6456092 C76.5115935,63.009993 77.3971767,61.1714014 71.6081464,61.7158908 C65.8180428,62.2614542 51.3803538,64.3717535 42.2540168,70.9818768 C42.2540168,70.9818768 37.1487641,74.1843768 40.5526238,77.5909261 C43.9597037,80.9974754 53.9018505,83.787581 66.4331205,83.8584613 L70.1794056,83.9948521 C70.1794056,83.9948521 71.3354942,82.9047993 73.0379607,78.6820528 L76.9205719,78.7486373" id="Stroke-49"></path>
                    <path d="M78.554124,75.3424102 L39.3963205,75.3424102" id="Stroke-51"></path>
                    <path d="M82.7062745,234.849248 C82.7062745,234.849248 33.6632162,221.834125 19.5293091,215.889847" id="Stroke-53"></path>
                    <path d="M121.335304,194.29735 C121.335304,194.29735 177.279471,196.997245 199.00363,197.280766 C220.728864,197.565361 233.792557,197.139005 233.792557,197.139005 C233.792557,197.139005 239.472097,213.334076 248.70041,218.731717" id="Stroke-55"></path>
                    <path d="M245.928052,301.97803 L250.94421,301.97803 C250.94421,301.97803 266.422056,301.97803 281.330983,301.694509 C296.239909,301.410988 380.441156,295.585917 383.848235,295.727678 C387.255315,295.870512 388.675469,298.710019 388.675469,298.710019 C388.675469,298.710019 392.934855,298.426498 424.173935,295.301322 C455.411942,292.175072 473.301795,287.914738 476.851641,286.778505 C480.402562,285.642273 480.827641,284.645653 480.827641,284.645653 C480.827641,284.645653 486.365488,272.146023 491.477181,251.263188 C496.588875,230.380354 496.588875,202.253769 496.019955,183.217044 C495.453181,164.180319 492.328415,133.780195 484.093028,122.558558 C475.857641,111.335847 463.362868,100.112062 457.399942,95.7088926 C451.434868,91.3067975 450.158555,90.4530123 447.034862,90.4530123 C443.909022,90.4530123 444.193482,89.315706 436.243629,89.315706 C428.291629,89.315706 422.327629,83.2081884 418.919475,76.9578363 C415.512395,70.7064102 408.554395,59.9111285 408.554395,59.9111285 C393.598238,33.3933116 378.262084,16.7224842 374.286084,13.695037 C370.312231,10.6686637 365.011613,10.2906356 365.011613,10.2906356 C325.631609,1.95468486 258.043903,0.537079225 258.043903,0.537079225 L245.170207,0.599367958" id="Stroke-57"></path>
                    <path d="M364.395784,10.0541532 C364.395784,10.0541532 368.086251,11.7574278 371.778864,15.0200687 C375.470404,18.2848574 385.409331,28.3734842 402.023944,58.6318468 C402.023944,58.6318468 406.992871,68.4337306 408.271331,71.5589067 C409.547644,74.6851567 412.814104,80.0827975 407.276257,80.7937482 C401.738411,81.5025511 388.960251,82.6398574 364.111324,81.0783433 C339.263471,79.5146813 264.0254,78.1443292 248.833087,78.0036426" id="Stroke-59"></path>
                    <path d="M410.447611,79.2322342 C410.447611,79.2322342 420.102078,79.9893644 416.127151,88.8902095 C412.152224,97.7932025 364.821294,187.19579 364.821294,187.19579" id="Stroke-61"></path>
                    <path d="M436.243521,89.316243 C436.243521,89.316243 442.063681,90.974412 442.253679,102.338884 C442.442603,113.70443 440.740137,134.729025 440.740137,134.729025" id="Stroke-63"></path>
                    <path d="M374.127967,192.982199 C374.127967,192.982199 388.1073,172.416178 396.044272,161.852868 C403.978024,151.28741 411.536073,149.399417 433.829153,137.889963 C456.122233,126.380509 475.959296,123.363801 475.959296,123.363801 C475.959296,123.363801 483.327348,146.75859 476.903918,159.023026 C470.482635,171.285315 463.538589,172.652445 459.711797,171.520509 C455.887151,170.387498 446.249859,167.415896 435.199929,152.276512" id="Stroke-65"></path>
                    <path d="M464.358264,125.684593 L472.16535,130.087762 C472.16535,130.087762 462.227497,130.940474 451.861344,135.485403 C441.497337,140.030333 439.508264,142.58954 437.235804,147.845421 C434.964417,153.101301 434.113184,157.646231 427.439644,159.778009 C420.766104,161.907639 389.954251,170.716125 389.954251,170.716125" id="Stroke-67"></path>
                    <path d="M472.165779,130.087333 L472.308546,136.479445 C472.308546,136.479445 466.629006,130.940044 454.985466,134.206981" id="Stroke-69"></path>
                    <path d="M472.308439,136.479553 C472.308439,136.479553 475.007052,165.176401 448.171199,165.602757" id="Stroke-71"></path>
                    <path d="M452.99811,169.011454 C452.99811,169.011454 450.44119,168.726859 443.76765,170.431208 C437.095184,172.13663 419.204257,178.103461 412.246257,178.813338 C405.289331,179.524289 401.738411,178.528743 392.509024,174.125574 L388.534097,172.279465" id="Stroke-73"></path>
                    <path d="M443.57937,145.621713 C443.57937,151.21696 448.114629,155.754371 453.709368,155.754371 C459.300886,155.754371 463.836145,151.21696 463.836145,145.621713 C463.836145,140.023245 459.300886,135.485833 453.709368,135.485833 C448.114629,135.485833 443.57937,140.023245 443.57937,145.621713 L443.57937,145.621713 Z" id="Stroke-75"></path>
                    <path d="M486.174954,125.63734 C486.174954,125.63734 481.822178,122.605597 475.95264,123.363801" id="Stroke-77"></path>
                    <path d="M496.08114,182.177789 C496.08114,182.177789 494.944374,189.565447 490.211603,185.397472 C485.478832,181.231644 481.692829,171.761609 481.692829,171.761609 C481.692829,171.761609 426.222048,221.764426 384.380659,202.065077" id="Stroke-79"></path>
                    <path d="M478.224886,213.523519 C478.224886,213.523519 480.68627,207.083079 478.981657,207.462181 C477.278117,207.842357 460.049499,216.743202 436.006722,222.994629 C436.006722,222.994629 420.671642,225.457181 412.908566,236.253537 L409.50256,241.177569 C409.50256,241.177569 436.385644,237.768871 456.074573,230.950403 C475.763501,224.131935 473.492115,224.319875 478.224886,213.523519 L478.224886,213.523519 Z" id="Stroke-81"></path>
                    <path d="M247.442775,176.77757 C247.442775,176.77757 306.699559,176.968732 343.618179,181.892764 C354.770086,183.380176 363.678516,186.839349 370.797531,191.124384 C387.245762,201.023996 394.156531,215.336444 397.196496,219.965141 C401.549271,226.593521 397.384347,249.132377 367.09311,255.571743 C336.801872,262.012183 273.946937,265.423028 247.442775,264.854912" id="Stroke-83"></path>
                    <path d="M371.936015,191.807627 C371.936015,191.807627 351.162918,194.073648 312.259518,194.641764 C273.357192,195.206658 262.780646,195.01657 262.780646,195.01657 C262.780646,195.01657 255.073389,209.129264 248.652106,214.038261" id="Stroke-85"></path>
                    <path d="M393.787269,215.229801 C393.787269,215.229801 389.811269,220.531861 362.549263,222.426298 C335.28833,224.31966 248.199546,226.214097 248.199546,226.214097" id="Stroke-87"></path>
                    <path d="M362.927112,256.14147 C362.927112,256.14147 356.681872,251.02735 352.893723,249.892192 C349.107721,248.754886 271.10663,252.354745 248.199546,252.164657" id="Stroke-89"></path>
                    <path d="M437.40079,136.39353 C437.40079,136.39353 432.902028,152.09566 430.046693,153.963248 C427.193505,155.829762 403.815184,164.174305 393.607898,165.712192" id="Stroke-91"></path>
                    <path d="M429.389859,140.017123 C429.389859,140.017123 426.315544,154.842915 423.90139,156.597739" id="Stroke-93"></path>
                    <path d="M422.693562,143.531496 C422.693562,143.531496 419.763087,157.327377 417.459497,158.959771" id="Stroke-95"></path>
                    <path d="M415.404837,147.036526 C415.404837,147.036526 412.919837,159.699396 410.968334,161.198621" id="Stroke-97"></path>
                    <path d="M408.495678,150.823681 C408.495678,150.823681 406.407849,161.794016 404.767642,163.093488" id="Stroke-99"></path>
                    <path d="M495.07383,228.675146 C495.07383,228.675146 496.967368,266.179407 488.447521,289.855569 C488.447521,289.855569 484.471521,303.114477 466.10721,304.059548 C447.743972,305.008914 432.976739,304.439724 431.273199,304.059548 C429.568586,303.682593 426.729352,296.672963 425.972581,294.780674" id="Stroke-101"></path>
                    <path d="M247.442775,280.19609 C247.442775,280.19609 321.655716,279.249945 346.456338,278.491741 C371.25696,277.733537 376.844185,279.152217 381.292496,280.289523 C385.741881,281.426829 392.083729,285.878326 392.651576,287.678255 C392.651576,287.678255 385.647418,289.856213 365.956343,291.275967 C346.267414,292.697868 310.203248,294.970333 281.803401,295.538449 C253.405701,296.105491 246.494932,296.484593 246.494932,296.484593" id="Stroke-103"></path>
                    <path d="M416.072621,71.5940246 L421.246573,71.5940246 C421.246573,71.5940246 420.431837,66.2790775 420.362063,64.6456092 C420.294437,63.009993 419.409927,61.1714014 425.198957,61.7158908 C430.985841,62.2614542 445.424603,64.3717535 454.55094,70.9818768 C454.55094,70.9818768 459.65834,74.1843768 456.253407,77.5909261 C452.8474,80.9974754 442.90418,83.787581 430.37291,83.8584613 L426.627698,83.9948521 C426.627698,83.9948521 425.469463,82.9047993 423.76807,78.6820528 L419.886532,78.7486373" id="Stroke-105"></path>
                    <path d="M418.25094,75.3424102 L457.409817,75.3424102" id="Stroke-107"></path>
                    <path d="M413.957204,234.884903 C413.957204,234.884903 463.112973,221.844005 477.27801,215.890062" id="Stroke-109"></path>
                    <path d="M375.693034,194.546935 C375.693034,194.546935 319.918471,197.218907 298.258717,197.50028 C276.60111,197.781653 263.577134,197.359593 263.577134,197.359593 C263.577134,197.359593 257.941605,213.382833 248.740127,218.726776" id="Stroke-111"></path>
                    <path d="M248.397809,211.180496 L252.729116,186.800901 C256.858617,186.800901 258.156399,187.256254 258.346397,189.10988 C258.346397,189.10988 261.11693,188.07782 262.512394,185.976113 C257.059349,183.449123 251.585908,183.333137 251.585908,183.333137 L248.388148,187.230479 L248.397809,187.230479 L245.198975,183.333137 C245.198975,183.333137 239.721241,183.449123 234.270343,185.976113 C235.66688,188.07782 238.43634,189.099141 238.43634,189.099141 C238.626338,187.256254 239.928414,186.800901 244.032152,186.796606 L248.397809,211.180496 L248.397809,211.180496 Z" id="Stroke-113"></path>
                    <path d="M248.397809,181.294685 C252.799962,181.257097 257.846176,181.976639 263.009394,184.227625 C263.699613,182.983998 263.872435,182.440583 263.872435,182.440583 C258.230466,180.198188 252.948096,179.437836 248.393515,179.417431 C243.843228,179.437836 238.555492,180.198188 232.913522,182.440583 C232.913522,182.440583 233.161485,183.118241 233.777636,184.227625 C238.936561,181.976639 243.988142,181.257097 248.393515,181.294685 L248.397809,181.294685 L248.397809,181.294685 Z" id="Stroke-115"></path>
                </g>
                <polygon id="Page-1" fill="#32D73B" points="243.384411 144.017301 0 389.776144 0 432.051902 243.384411 186.288353"></polygon>
                <polygon id="Page-1-Copy" fill="#27F489" points="559.384411 0 316 245.758844 316 288.034602 559.384411 42.2710519"></polygon>
                <polygon id="Page-1" fill="#009933" points="233.000626 33 102 165.138053 102 206.572195 233.000626 73.7392578"></polygon>
            </g>
        </g>
    </g>
</svg>