<svg xmlns="http://www.w3.org/2000/svg" xmlns:xlink="http://www.w3.org/1999/xlink" width="299" height="176" viewBox="0 0 299 176">
    <defs>
        <path id="a" d="M39.343.515H0V52.05h39.343V.515z"/>
        <path id="c" d="M0 175.485h298.996V0H0z"/>
    </defs>
    <g fill="none" fill-rule="evenodd">
        <g transform="translate(0 62.711)">
            <mask id="b" fill="#fff">
                <use xlink:href="#a"/>
            </mask>
            <path fill="#FFF" d="M27.79 38.048c0-1.767-.581-3.132-1.743-4.093-1.163-.965-3.247-1.985-6.255-3.064-6.288-1.994-10.946-4.133-13.978-6.414-3.03-2.284-4.545-5.58-4.545-9.892 0-4.196 1.806-7.59 5.417-10.184C10.298 1.811 14.883.515 20.442.515c5.514 0 10.031 1.426 13.553 4.283 3.52 2.854 5.22 6.53 5.107 11.025l-.07.208H27.825c0-1.997-.67-3.618-2.015-4.869-1.346-1.25-3.202-1.875-5.572-1.875-2.324 0-4.145.517-5.47 1.547-1.318 1.033-1.98 2.306-1.98 3.82 0 1.467.667 2.643 1.998 3.526 1.334.883 3.835 1.99 7.505 3.32 5.648 1.696 9.903 3.785 12.763 6.26 2.86 2.478 4.29 5.884 4.29 10.218 0 4.404-1.705 7.85-5.11 10.339-3.406 2.49-7.924 3.732-13.552 3.732-5.65 0-10.538-1.428-14.662-4.282-4.123-2.858-6.13-6.968-6.014-12.334l.07-.206h11.242c0 2.888.776 4.953 2.324 6.192 1.55 1.238 3.897 1.858 7.04 1.858 2.393 0 4.177-.482 5.349-1.445 1.174-.963 1.76-2.226 1.76-3.784" mask="url(#b)"/>
        </g>
        <path fill="#FFF" d="M80.285 72.892H67.162v41.145H55.576V72.892H42.554v-8.944h37.731zM94.57 95.357h10.561l-5.196-17.924h-.204l-5.16 17.924zm13.124 8.944H92.008l-2.803 9.737H77.586l16.06-50.09h12.407l16.097 50.09h-11.619l-2.837-9.737zM137.257 85.896h7.62c2.327 0 4.102-.532 5.333-1.6 1.23-1.065 1.844-2.597 1.844-4.59 0-2.042-.631-3.687-1.896-4.938-1.265-1.25-3.048-1.876-5.349-1.876h-7.552v13.004zm0 8.944v19.198H125.67v-50.09h19.138c5.764 0 10.332 1.342 13.705 4.026 3.373 2.684 5.059 6.352 5.059 11.008 0 2.592-.68 4.817-2.034 6.673-1.355 1.86-3.354 3.373-5.998 4.542 3.054.871 5.244 2.322 6.579 4.352 1.332 2.03 1.999 4.557 1.999 7.585v3.166c0 1.308.193 2.799.58 4.473.387 1.674 1.06 2.866 2.017 3.576v.689h-11.892c-.912-.71-1.512-1.973-1.795-3.784-.286-1.812-.427-3.488-.427-5.023v-3.028c0-2.385-.628-4.207-1.88-5.47-1.254-1.26-3.088-1.893-5.502-1.893h-7.963zM204.893 72.892h-13.125v41.145h-11.585V72.892h-13.022v-8.944h37.732zM251.968 63.948v32.819c0 5.711-1.885 10.14-5.655 13.28-3.77 3.143-8.709 4.713-14.816 4.713-6.174 0-11.153-1.57-14.935-4.714-3.781-3.14-5.674-7.568-5.674-13.28V63.949h11.588v32.819c0 3.074.784 5.35 2.356 6.83 1.572 1.479 3.794 2.22 6.665 2.22 2.848 0 5.042-.736 6.578-2.204 1.539-1.466 2.307-3.75 2.307-6.846v-32.82h11.586zM271.142 87.926h8.613c2.504 0 4.414-.692 5.722-2.08 1.31-1.388 1.967-3.17 1.967-5.35 0-2.224-.657-4.047-1.967-5.471-1.308-1.421-3.218-2.133-5.722-2.133h-8.613v15.034zm0 8.944v17.167h-11.586V63.948h20.199c5.9 0 10.583 1.52 14.045 4.56 3.463 3.038 5.195 7.011 5.195 11.92 0 4.93-1.732 8.905-5.195 11.919-3.462 3.017-8.146 4.523-14.045 4.523h-8.613zM12.087 146.62h7.622c2.325 0 4.1-.532 5.333-1.6 1.229-1.064 1.844-2.596 1.844-4.59 0-2.042-.633-3.687-1.898-4.938-1.263-1.25-3.047-1.875-5.346-1.875h-7.555v13.004zm0 8.944v19.198H.501v-50.089h19.14c5.764 0 10.332 1.341 13.705 4.025 3.371 2.684 5.057 6.352 5.057 11.009 0 2.592-.677 4.816-2.034 6.672-1.355 1.86-3.354 3.373-5.998 4.543 3.054.87 5.247 2.32 6.58 4.35 1.333 2.03 2 4.559 2 7.586v3.167c0 1.308.191 2.798.58 4.472.385 1.675 1.06 2.867 2.016 3.576v.689H29.654c-.912-.71-1.51-1.973-1.794-3.784-.285-1.811-.428-3.487-.428-5.023v-3.027c0-2.386-.627-4.208-1.88-5.47-1.252-1.26-3.087-1.894-5.502-1.894h-7.963z"/>
        <mask id="d" fill="#fff">
            <use xlink:href="#c"/>
        </mask>
        <path fill="#FFF" d="M48.471 174.761h11.517v-50.089H48.471zM81.129 133.617v32.2h5.605c3.075 0 5.479-1.06 7.211-3.181 1.729-2.122 2.596-4.926 2.596-8.411v-9.083c0-3.465-.867-6.25-2.596-8.36-1.732-2.11-4.136-3.165-7.211-3.165h-5.605zM69.54 174.762v-50.09H87.52c5.855 0 10.753 1.921 14.695 5.763 3.942 3.843 5.912 8.768 5.912 14.777v9.013c0 6.03-1.97 10.961-5.912 14.79-3.942 3.831-8.84 5.747-14.695 5.747H69.54zM146.37 153.33h-19.513v12.487h23v8.945H115.27v-50.09h34.654v8.945h-23.068v10.77h19.512zM181.505 161.483c0-1.766-.583-3.132-1.745-4.093-1.161-.964-3.247-1.985-6.255-3.064-6.287-1.993-10.946-4.132-13.976-6.414-3.03-2.283-4.545-5.58-4.545-9.891 0-4.197 1.804-7.59 5.417-10.184 3.61-2.59 8.196-3.887 13.754-3.887 5.516 0 10.033 1.426 13.551 4.284 3.522 2.854 5.224 6.53 5.109 11.024l-.067.208h-11.209c0-1.997-.674-3.617-2.016-4.868-1.347-1.251-3.203-1.876-5.573-1.876-2.322 0-4.147.517-5.467 1.548-1.322 1.032-1.982 2.306-1.982 3.82 0 1.466.667 2.643 2 3.526s3.832 1.99 7.5 3.319c5.652 1.697 9.906 3.786 12.765 6.261 2.858 2.478 4.289 5.884 4.289 10.218 0 4.403-1.703 7.849-5.11 10.338-3.405 2.49-7.92 3.732-13.55 3.732-5.65 0-10.536-1.428-14.661-4.282-4.123-2.857-6.13-6.967-6.015-12.334l.067-.206h11.243c0 2.889.777 4.953 2.327 6.192 1.547 1.239 3.895 1.858 7.039 1.858 2.394 0 4.174-.482 5.35-1.445 1.17-.963 1.76-2.226 1.76-3.784M201.866 133.62h97.035v-8.965h-97.035zM201.866 174.826h52.089v-8.965h-52.089zM201.866 154.223h74.556v-8.965h-74.556z" mask="url(#d)"/>
        <text fill="#FFF" font-family="HelveticaNeue-Bold, Helvetica Neue" font-size="71.2" font-weight="bold" mask="url(#d)">
            <tspan x="0" y="51">2017</tspan>
        </text>
    </g>
</svg>
